<svg width="24" height="24" viewBox="0 0 24 24" fill="none" xmlns="http://www.w3.org/2000/svg">
<path d="M17.2863 18.7855C16.9505 18.4455 16.4027 18.4421 16.0626 18.7779L12.7868 22.0134C12.7855 22.0147 12.7842 22.016 12.783 22.0172C12.4456 22.3546 11.8966 22.3546 11.5596 22.0175L8.32699 18.782C7.98926 18.4438 7.44132 18.4436 7.10328 18.7814C6.7652 19.1191 6.76494 19.667 7.10271 20.0051L10.3355 23.2409C10.8417 23.7469 11.5064 24 12.1711 24C12.835 24 13.4988 23.7477 14.0045 23.2431L17.2787 20.0092C17.6188 19.6734 17.6221 19.1255 17.2863 18.7855Z" fill="white"/>
<g clip-path="url(#clip0)">
<path d="M14.3328 1.81032L19.4983 10.7571C19.6941 11.0959 19.7971 11.4804 19.7966 11.8717C19.7966 13.1048 18.7969 14.1046 17.5637 14.1046H12.3983L10.612 7.39829L12.3983 0.692017C13.2254 0.692017 13.947 1.14207 14.3328 1.81032V1.81032Z" fill="#3B4145"/>
<path d="M10.4638 1.81032L5.29833 10.7571C5.10248 11.0959 4.99957 11.4804 5 11.8717C5 13.1048 5.9997 14.1046 7.2329 14.1046H12.3983V0.692017C11.5712 0.692017 10.8497 1.14207 10.4638 1.81032V1.81032Z" fill="#525A61"/>
<path d="M18.7248 11.2037L13.5594 2.25699C13.3266 1.85358 12.8991 1.59903 12.4367 1.58594L16.8546 13.2115H17.5637C18.3024 13.2115 18.9035 12.6105 18.9035 11.8718C18.9034 11.6373 18.8418 11.4069 18.7248 11.2037V11.2037Z" fill="#FFB751"/>
<path d="M17.8561 11.2037C17.957 11.4062 18.0103 11.6372 18.0103 11.8718C18.0103 12.6104 17.492 13.2115 16.8546 13.2115H7.23292C6.49427 13.2115 5.89319 12.6104 5.89319 11.8718C5.89324 11.6373 5.95483 11.4069 6.07182 11.2037L11.2372 2.25697C11.4766 1.84255 11.9214 1.58502 12.3983 1.58502C12.4111 1.58502 12.4239 1.58531 12.4367 1.58592C12.8336 1.60141 13.2001 1.85535 13.3998 2.25697L17.8561 11.2037V11.2037Z" fill="#FFD764"/>
<path d="M12.3983 10.2343V11.7228C12.8095 11.7228 13.1426 11.3897 13.1426 10.9785C13.1426 10.5674 12.8095 10.2343 12.3983 10.2343Z" fill="#3B4145"/>
<path d="M12.3983 10.2343C12.4805 10.2343 12.5472 10.5674 12.5472 10.9786C12.5472 11.3897 12.4805 11.7229 12.3983 11.7229C11.9871 11.7229 11.654 11.3897 11.654 10.9786C11.654 10.5674 11.9871 10.2343 12.3983 10.2343Z" fill="#525A61"/>
<path d="M12.3983 3.8334V9.34121C12.8095 9.34121 13.1426 9.00777 13.1426 8.5969V4.57771C13.1426 4.16656 12.8095 3.8334 12.3983 3.8334V3.8334Z" fill="#3B4145"/>
<path d="M12.3983 3.8334C12.4805 3.8334 12.5472 4.16656 12.5472 4.57771V8.5969C12.5472 9.00774 12.4805 9.34121 12.3983 9.34121C11.9871 9.34121 11.654 9.00777 11.654 8.5969V4.57771C11.654 4.16656 11.9871 3.8334 12.3983 3.8334V3.8334Z" fill="#525A61"/>
</g>
<defs>
<clipPath id="clip0">
<rect width="14.7966" height="14.7966" fill="white" transform="translate(5)"/>
</clipPath>
</defs>
</svg>
