<svg width="98" height="98" viewBox="0 0 98 98" fill="none" xmlns="http://www.w3.org/2000/svg">
<g clip-path="url(#clip0)">
<path d="M42.72 65.596H34.709V2C34.709 0.895 33.813 0 32.709 0H16.579C15.475 0 14.579 0.895 14.579 2V65.596H6.56803C5.79803 65.596 5.09603 66.039 4.76403 66.733C4.43203 67.428 4.52803 68.25 5.01003 68.85L23.086 95.805C23.466 96.278 24.039 96.551 24.644 96.551C25.249 96.551 25.822 96.278 26.202 95.805L44.278 68.85C44.76 68.25 44.856 67.428 44.524 66.733C44.192 66.039 43.49 65.596 42.72 65.596Z" fill="white"/>
<path d="M92.998 39.315L79.668 1.54103C79.386 0.742031 78.63 0.207031 77.782 0.207031H73.921C73.815 0.207031 73.708 0.215031 73.604 0.232031C73.5 0.214031 73.394 0.207031 73.286 0.207031H69.526C68.676 0.207031 67.921 0.742031 67.638 1.54303L54.362 39.317C54.147 39.928 54.242 40.606 54.617 41.135C54.992 41.664 55.599 41.979 56.249 41.979H62.023C62.903 41.979 63.679 41.405 63.936 40.563L66.471 32.239H80.89L83.426 40.563C83.682 41.405 84.459 41.979 85.339 41.979H91.11C91.758 41.979 92.368 41.665 92.743 41.135C93.119 40.604 93.213 39.926 92.998 39.315ZM68.864 24.283C71.261 16.513 72.884 11.117 73.684 8.24203L78.612 24.283H68.864Z" fill="white"/>
<path d="M87.2551 89.838H69.4381L88.3661 62.633C88.5981 62.297 88.7231 61.899 88.7231 61.49V58.074C88.7231 56.97 87.8271 56.074 86.7231 56.074H60.6531C59.5491 56.074 58.6531 56.97 58.6531 58.074V61.918C58.6531 63.023 59.5491 63.918 60.6531 63.918H77.4351L58.4811 91.094C58.2471 91.43 58.1221 91.828 58.1221 92.239V95.68C58.1221 96.785 59.0181 97.68 60.1221 97.68H87.2571C88.3611 97.68 89.2571 96.785 89.2571 95.68V91.838C89.2551 90.732 88.3611 89.838 87.2551 89.838Z" fill="white"/>
</g>
<defs>
<clipPath id="clip0">
<rect width="97.68" height="97.68" fill="white"/>
</clipPath>
</defs>
</svg>
