<svg width="98" height="98" viewBox="0 0 98 98" fill="none" xmlns="http://www.w3.org/2000/svg">
<path d="M42.72 65.596H34.709V2C34.709 0.895 33.813 0 32.709 0H16.579C15.475 0 14.579 0.895 14.579 2V65.596H6.56803C5.79803 65.596 5.09603 66.039 4.76403 66.733C4.43203 67.428 4.52803 68.25 5.01003 68.85L23.086 95.805C23.466 96.278 24.039 96.551 24.644 96.551C25.249 96.551 25.822 96.278 26.202 95.805L44.278 68.85C44.76 68.25 44.856 67.428 44.524 66.733C44.192 66.039 43.49 65.596 42.72 65.596Z" fill="white"/>
<g clip-path="url(#clip0)">
<path d="M79.2298 6.89397L93.1936 31.0801C93.7231 31.9959 94.0013 33.0353 94.0002 34.0931C94.0002 37.4267 91.2977 40.1294 87.9639 40.1294H74.0001L69.1711 22.0001L74.0001 3.87085C76.2361 3.87085 78.1866 5.08749 79.2298 6.89397V6.89397Z" fill="#3B4145"/>
<path d="M68.7704 6.89397L54.8065 31.0801C54.277 31.9959 53.9988 33.0353 54 34.0931C54 37.4267 56.7025 40.1294 60.0363 40.1294H74V3.87085C71.7641 3.87085 69.8135 5.08749 68.7704 6.89397V6.89397Z" fill="#525A61"/>
<path d="M91.1025 32.2874L77.1388 8.10142C76.5094 7.01087 75.3537 6.32274 74.1038 6.28735L86.0467 37.7151H87.9638C89.9606 37.7151 91.5855 36.0902 91.5855 34.0934C91.5854 33.4595 91.4188 32.8367 91.1025 32.2874V32.2874Z" fill="#FFB751"/>
<path d="M88.7542 32.2873C89.027 32.8346 89.171 33.4591 89.171 34.0933C89.171 36.0901 87.7699 37.7151 86.0467 37.7151H60.0363C58.0395 37.7151 56.4146 36.0901 56.4146 34.0933C56.4147 33.4595 56.5812 32.8367 56.8974 32.2873L70.8612 8.1014C71.5083 6.98108 72.7107 6.28491 74 6.28491C74.0346 6.28491 74.0692 6.28569 74.1039 6.28733C75.1767 6.32921 76.1674 7.01569 76.7074 8.1014L88.7542 32.2873V32.2873Z" fill="#FFD764"/>
<path d="M74 29.6665V33.6906C75.1115 33.6906 76.0121 32.79 76.0121 31.6785C76.0121 30.5671 75.1115 29.6665 74 29.6665Z" fill="#3B4145"/>
<path d="M73.9999 29.6665C74.222 29.6665 74.4023 30.5671 74.4023 31.6786C74.4023 32.7901 74.222 33.6907 73.9999 33.6907C72.8884 33.6907 71.9878 32.7901 71.9878 31.6786C71.9878 30.5671 72.8884 29.6665 73.9999 29.6665Z" fill="#525A61"/>
<path d="M74 12.363V27.2524C75.1115 27.2524 76.0121 26.351 76.0121 25.2403V14.3751C76.0121 13.2637 75.1115 12.363 74 12.363V12.363Z" fill="#3B4145"/>
<path d="M73.9999 12.363C74.222 12.363 74.4023 13.2637 74.4023 14.3751V25.2403C74.4023 26.3509 74.222 27.2524 73.9999 27.2524C72.8884 27.2524 71.9878 26.351 71.9878 25.2403V14.3751C71.9878 13.2637 72.8884 12.363 73.9999 12.363V12.363Z" fill="#525A61"/>
</g>
<g clip-path="url(#clip1)">
<path d="M76.6149 74.447L83.5968 86.5401C83.8616 86.998 84.0007 87.5176 84.0001 88.0466C84.0001 89.7134 82.6488 91.0647 80.982 91.0647H74.0001L71.5856 82L74.0001 72.9354C75.118 72.9354 76.0933 73.5437 76.6149 74.447V74.447Z" fill="#3B4145"/>
<path d="M71.3852 74.447L64.4032 86.5401C64.1385 86.998 63.9994 87.5176 64 88.0466C64 89.7134 65.3513 91.0647 67.0181 91.0647H74V72.9354C72.882 72.9354 71.9068 73.5437 71.3852 74.447V74.447Z" fill="#525A61"/>
<path d="M82.5513 87.1437L75.5694 75.0507C75.2547 74.5054 74.6768 74.1614 74.0519 74.1437L80.0233 89.8575H80.9819C81.9803 89.8575 82.7927 89.0451 82.7927 88.0467C82.7927 87.7297 82.7094 87.4184 82.5513 87.1437V87.1437Z" fill="#FFB751"/>
<path d="M81.3771 87.1437C81.5135 87.4173 81.5855 87.7296 81.5855 88.0467C81.5855 89.0451 80.8849 89.8575 80.0233 89.8575H67.0181C66.0197 89.8575 65.2073 89.0451 65.2073 88.0467C65.2073 87.7297 65.2906 87.4184 65.4487 87.1437L72.4306 75.0507C72.7542 74.4905 73.3554 74.1425 74 74.1425C74.0173 74.1425 74.0346 74.1428 74.0519 74.1437C74.5883 74.1646 75.0837 74.5078 75.3537 75.0507L81.3771 87.1437V87.1437Z" fill="#FFD764"/>
<path d="M74 85.8333V87.8453C74.5557 87.8453 75.0061 87.395 75.0061 86.8393C75.0061 86.2836 74.5557 85.8333 74 85.8333Z" fill="#3B4145"/>
<path d="M74 85.8333C74.111 85.8333 74.2012 86.2836 74.2012 86.8393C74.2012 87.395 74.111 87.8454 74 87.8454C73.4442 87.8454 72.9939 87.395 72.9939 86.8393C72.9939 86.2836 73.4442 85.8333 74 85.8333Z" fill="#525A61"/>
<path d="M74 77.1815V84.6262C74.5557 84.6262 75.0061 84.1755 75.0061 83.6202V78.1876C75.0061 77.6318 74.5557 77.1815 74 77.1815V77.1815Z" fill="#3B4145"/>
<path d="M74 77.1815C74.111 77.1815 74.2012 77.6318 74.2012 78.1876V83.6202C74.2012 84.1755 74.111 84.6262 74 84.6262C73.4442 84.6262 72.9939 84.1755 72.9939 83.6202V78.1876C72.9939 77.6318 73.4442 77.1815 74 77.1815V77.1815Z" fill="#525A61"/>
</g>
<defs>
<clipPath id="clip0">
<rect width="40" height="40" fill="white" transform="translate(54 2)"/>
</clipPath>
<clipPath id="clip1">
<rect width="20" height="20" fill="white" transform="translate(64 72)"/>
</clipPath>
</defs>
</svg>
