<svg width="24" height="24" viewBox="0 0 24 24" fill="none" xmlns="http://www.w3.org/2000/svg">
<path d="M6.68972 5.64991C7.05364 6.01833 7.64719 6.022 8.01561 5.65813L11.565 2.15245C11.5663 2.15109 11.5678 2.14972 11.5691 2.14836C11.9347 1.7828 12.5295 1.78285 12.8947 2.14808L16.3972 5.65376C16.7631 6.02012 17.3568 6.0204 17.7231 5.65437C18.0894 5.28843 18.0897 4.69479 17.7237 4.32848L14.2209 0.82247C13.6725 0.2742 12.9523 -4.87047e-06 12.232 -4.80751e-06C11.5128 -4.74462e-06 10.7936 0.273355 10.2456 0.820123L6.69799 4.32402C6.32951 4.68793 6.3259 5.28153 6.68972 5.64991Z" fill="white"/>
<g clip-path="url(#clip0)">
<path d="M11.9859 9.97187C8.11217 9.97187 4.97187 13.1122 4.97187 16.9859C4.97187 20.8597 8.11217 24 11.9859 24C15.8597 24 19 20.8597 19 16.9859C19 13.1122 15.8597 9.97187 11.9859 9.97187Z" fill="#E24C4B"/>
<path d="M4.97188 16.9859C4.97188 13.1282 8.12821 9.97187 11.986 9.97187C14.2217 9.97187 16.1944 10.9801 17.4657 12.6021C16.2821 11.6377 14.7477 11.0678 13.0819 11.0678C9.22417 11.0678 6.06784 14.2241 6.06784 18.0819C6.06784 19.7477 6.63774 21.282 7.60218 22.4656C5.98015 21.1944 4.97188 19.2217 4.97188 16.9859V16.9859Z" fill="#D1403F"/>
<path d="M8.78578 13.7857C9.04879 13.5227 9.4872 13.5227 9.75021 13.7857L11.9859 16.0215L14.2217 13.7857C14.4847 13.5227 14.9231 13.5227 15.1861 13.7857C15.4491 14.0488 15.4491 14.4872 15.1861 14.7502L12.9504 16.9859L15.1861 19.2216C15.4491 19.4846 15.4491 19.9231 15.1861 20.1861C14.9231 20.4491 14.4847 20.4491 14.2217 20.1861L11.9859 17.9503L9.75021 20.1861C9.4872 20.4491 9.04879 20.4491 8.78578 20.1861C8.52276 19.9231 8.52276 19.4846 8.78578 19.2216L11.0215 16.9859L8.78578 14.7502C8.52276 14.4872 8.52276 14.0488 8.78578 13.7857Z" fill="white"/>
</g>
<defs>
<clipPath id="clip0">
<rect width="14.0281" height="14.0281" fill="white" transform="translate(19 24) rotate(180)"/>
</clipPath>
</defs>
</svg>
