<svg width="98" height="98" viewBox="0 0 98 98" fill="none" xmlns="http://www.w3.org/2000/svg">
<path d="M42.72 65.596H34.709V2C34.709 0.895 33.813 0 32.709 0H16.579C15.475 0 14.579 0.895 14.579 2V65.596H6.56803C5.79803 65.596 5.09603 66.039 4.76403 66.733C4.43203 67.428 4.52803 68.25 5.01003 68.85L23.086 95.805C23.466 96.278 24.039 96.551 24.644 96.551C25.249 96.551 25.822 96.278 26.202 95.805L44.278 68.85C44.76 68.25 44.856 67.428 44.524 66.733C44.192 66.039 43.49 65.596 42.72 65.596Z" fill="white"/>
<g clip-path="url(#clip0)">
<path d="M74 42.0001C85.0457 42.0001 94.0001 33.0457 94.0001 22C94.0001 10.9543 85.0457 2 74 2C62.9543 2 54 10.9543 54 22C54 33.0457 62.9543 42.0001 74 42.0001Z" fill="#E24C4B"/>
<path d="M94.0001 21.9999C94.0001 33 85.0001 41.9999 74 41.9999C67.6251 41.9999 62 39.125 58.375 34.5C61.75 37.25 66.125 38.875 70.875 38.875C81.875 38.875 90.875 29.875 90.875 18.875C90.875 14.125 89.25 9.75 86.5 6.375C91.1251 9.99987 94.0001 15.6249 94.0001 21.9999V21.9999Z" fill="#D1403F"/>
<path d="M83.125 31.125C82.375 31.8749 81.1249 31.8749 80.3749 31.125L74 24.75L67.625 31.125C66.875 31.8749 65.625 31.8749 64.875 31.125C64.125 30.375 64.125 29.1249 64.875 28.375L71.25 22L64.875 15.625C64.125 14.875 64.125 13.625 64.875 12.875C65.625 12.125 66.875 12.125 67.625 12.875L74 19.25L80.3749 12.875C81.1249 12.125 82.375 12.125 83.125 12.875C83.8749 13.625 83.8749 14.875 83.125 15.625L76.75 22L83.125 28.375C83.8749 29.1249 83.8749 30.3749 83.125 31.125Z" fill="white"/>
</g>
<g clip-path="url(#clip1)">
<path d="M74 92C79.5229 92 84 87.5229 84 82C84 76.4772 79.5229 72 74 72C68.4772 72 64 76.4772 64 82C64 87.5229 68.4772 92 74 92Z" fill="#E24C4B"/>
<path d="M84 82C84 87.5 79.5 92 74 92C70.8125 92 68 90.5625 66.1875 88.25C67.875 89.625 70.0625 90.4375 72.4375 90.4375C77.9375 90.4375 82.4375 85.9375 82.4375 80.4375C82.4375 78.0625 81.625 75.875 80.25 74.1875C82.5625 75.9999 84 78.8124 84 82V82Z" fill="#D1403F"/>
<path d="M78.5625 86.5625C78.1875 86.9375 77.5625 86.9375 77.1875 86.5625L74 83.375L70.8125 86.5625C70.4375 86.9375 69.8125 86.9375 69.4375 86.5625C69.0625 86.1875 69.0625 85.5625 69.4375 85.1875L72.625 82L69.4375 78.8125C69.0625 78.4375 69.0625 77.8125 69.4375 77.4375C69.8125 77.0625 70.4375 77.0625 70.8125 77.4375L74 80.625L77.1875 77.4375C77.5625 77.0625 78.1875 77.0625 78.5625 77.4375C78.9375 77.8125 78.9375 78.4375 78.5625 78.8125L75.375 82L78.5625 85.1875C78.9375 85.5625 78.9375 86.1875 78.5625 86.5625Z" fill="white"/>
</g>
<defs>
<clipPath id="clip0">
<rect width="40" height="40" fill="white" transform="translate(54 2)"/>
</clipPath>
<clipPath id="clip1">
<rect width="20" height="20" fill="white" transform="translate(64 72)"/>
</clipPath>
</defs>
</svg>
