<svg width="24" height="24" viewBox="0 0 24 24" fill="none" xmlns="http://www.w3.org/2000/svg">
<g filter="url(#filter0_d)">
<path d="M17.3103 18.3501C16.9464 17.9817 16.3528 17.978 15.9844 18.3419L12.435 21.8476C12.4337 21.8489 12.4322 21.8503 12.4309 21.8516C12.0653 22.2172 11.4705 22.2172 11.1053 21.8519L7.60282 18.3462C7.23689 17.9799 6.6432 17.9796 6.27693 18.3456C5.91062 18.7116 5.91034 19.3052 6.27632 19.6715L9.7791 23.1775C10.3275 23.7258 11.0477 24 11.768 24C12.4872 24 13.2064 23.7266 13.7544 23.1799L17.302 19.676C17.6705 19.3121 17.6741 18.7185 17.3103 18.3501Z" fill="white"/>
<g clip-path="url(#clip0)">
<path d="M12.0141 14.0281C15.8878 14.0281 19.0281 10.8878 19.0281 7.01407C19.0281 3.1403 15.8878 0 12.0141 0C8.1403 0 5 3.1403 5 7.01407C5 10.8878 8.1403 14.0281 12.0141 14.0281Z" fill="#E24C4B"/>
<path d="M19.0281 7.01407C19.0281 10.8718 15.8718 14.0281 12.014 14.0281C9.77832 14.0281 7.80562 13.0199 6.5343 11.3979C7.71792 12.3623 9.25226 12.9322 10.9181 12.9322C14.7758 12.9322 17.9322 9.77588 17.9322 5.91814C17.9322 4.25232 17.3623 2.71798 16.3978 1.53436C18.0198 2.80562 19.0281 4.77832 19.0281 7.01407V7.01407Z" fill="#D1403F"/>
<path d="M15.2142 10.2143C14.9512 10.4773 14.5128 10.4773 14.2498 10.2143L12.0141 7.97853L9.77834 10.2143C9.51532 10.4773 9.07692 10.4773 8.8139 10.2143C8.55088 9.95124 8.55088 9.51284 8.8139 9.24982L11.0496 7.01409L8.8139 4.77837C8.55088 4.51535 8.55088 4.07695 8.8139 3.81393C9.07692 3.55091 9.51532 3.55091 9.77834 3.81393L12.0141 6.04966L14.2498 3.81393C14.5128 3.55091 14.9512 3.55091 15.2142 3.81393C15.4772 4.07695 15.4772 4.51535 15.2142 4.77837L12.9785 7.01409L15.2142 9.24982C15.4772 9.51284 15.4772 9.95121 15.2142 10.2143Z" fill="white"/>
</g>
</g>
<defs>
<filter id="filter0_d" x="1" y="0" width="22.0281" height="32" filterUnits="userSpaceOnUse" color-interpolation-filters="sRGB">
<feFlood flood-opacity="0" result="BackgroundImageFix"/>
<feColorMatrix in="SourceAlpha" type="matrix" values="0 0 0 0 0 0 0 0 0 0 0 0 0 0 0 0 0 0 127 0" result="hardAlpha"/>
<feOffset dy="4"/>
<feGaussianBlur stdDeviation="2"/>
<feComposite in2="hardAlpha" operator="out"/>
<feColorMatrix type="matrix" values="0 0 0 0 0 0 0 0 0 0 0 0 0 0 0 0 0 0 0.25 0"/>
<feBlend mode="normal" in2="BackgroundImageFix" result="effect1_dropShadow"/>
<feBlend mode="normal" in="SourceGraphic" in2="effect1_dropShadow" result="shape"/>
</filter>
<clipPath id="clip0">
<rect width="14.0281" height="14.0281" fill="white" transform="translate(5)"/>
</clipPath>
</defs>
</svg>
