<svg width="24" height="24" viewBox="0 0 24 24" fill="none" xmlns="http://www.w3.org/2000/svg">
<g filter="url(#filter0_d)">
<path d="M7.50562 5.20483C7.84087 5.54423 8.38766 5.54761 8.72706 5.2124L11.9968 1.98287C11.9981 1.98162 11.9994 1.98036 12.0006 1.97911C12.3374 1.64235 12.8854 1.64239 13.2218 1.97885L16.4484 5.20838C16.7855 5.54588 17.3324 5.54614 17.6698 5.20894C18.0073 4.87183 18.0076 4.32495 17.6704 3.98749L14.4435 0.757663C13.9384 0.252581 13.2748 -2.38766e-05 12.6113 -2.38186e-05C11.9487 -2.37607e-05 11.2862 0.251803 10.7814 0.7555L7.51323 3.98338C7.17378 4.31863 7.17045 4.86547 7.50562 5.20483Z" fill="white"/>
<g clip-path="url(#clip0)">
<path d="M14.3156 11.0377L19.4715 19.968C19.667 20.3061 19.7697 20.6899 19.7693 21.0805C19.7693 22.3114 18.7714 23.3093 17.5405 23.3093H12.3846L10.6016 16.6154L12.3846 9.92151C13.2102 9.92151 13.9304 10.3707 14.3156 11.0377V11.0377Z" fill="#3B4145"/>
<path d="M10.4537 11.0377L5.29778 19.968C5.1023 20.3062 4.99957 20.6899 5 21.0805C5 22.3114 5.99785 23.3093 7.22877 23.3093H12.3846V9.92151C11.559 9.92151 10.8388 10.3707 10.4537 11.0377V11.0377Z" fill="#525A61"/>
<path d="M18.6994 20.4138L13.5436 11.4836C13.3112 11.0809 12.8845 10.8268 12.423 10.8138L16.8327 22.4179H17.5405C18.2778 22.4179 18.8778 21.8179 18.8778 21.0806C18.8777 20.8466 18.8162 20.6166 18.6994 20.4138V20.4138Z" fill="#FFB751"/>
<path d="M17.8323 20.4138C17.9331 20.6158 17.9862 20.8464 17.9862 21.0806C17.9862 21.8179 17.4689 22.4179 16.8326 22.4179H7.22879C6.49151 22.4179 5.89154 21.8179 5.89154 21.0806C5.89159 20.8465 5.95307 20.6166 6.06984 20.4138L11.2257 11.4836C11.4646 11.0699 11.9086 10.8129 12.3846 10.8129C12.3974 10.8129 12.4102 10.8132 12.423 10.8138C12.8191 10.8292 13.1849 11.0827 13.3843 11.4836L17.8323 20.4138V20.4138Z" fill="#FFD764"/>
<path d="M12.3846 19.4461V20.9319C12.795 20.9319 13.1276 20.5994 13.1276 20.189C13.1276 19.7786 12.795 19.4461 12.3846 19.4461Z" fill="#3B4145"/>
<path d="M12.3846 19.4461C12.4666 19.4461 12.5332 19.7786 12.5332 20.189C12.5332 20.5994 12.4666 20.932 12.3846 20.932C11.9742 20.932 11.6417 20.5994 11.6417 20.189C11.6417 19.7786 11.9742 19.4461 12.3846 19.4461Z" fill="#525A61"/>
<path d="M12.3846 13.0571V18.5547C12.795 18.5547 13.1276 18.2219 13.1276 17.8118V13.8C13.1276 13.3896 12.795 13.0571 12.3846 13.0571V13.0571Z" fill="#3B4145"/>
<path d="M12.3846 13.0571C12.4666 13.0571 12.5332 13.3896 12.5332 13.8V17.8118C12.5332 18.2218 12.4666 18.5547 12.3846 18.5547C11.9742 18.5547 11.6417 18.2219 11.6417 17.8118V13.8C11.6417 13.3896 11.9742 13.0571 12.3846 13.0571V13.0571Z" fill="#525A61"/>
</g>
</g>
<defs>
<filter id="filter0_d" x="1" y="-3.05176e-05" width="22.7692" height="32" filterUnits="userSpaceOnUse" color-interpolation-filters="sRGB">
<feFlood flood-opacity="0" result="BackgroundImageFix"/>
<feColorMatrix in="SourceAlpha" type="matrix" values="0 0 0 0 0 0 0 0 0 0 0 0 0 0 0 0 0 0 127 0" result="hardAlpha"/>
<feOffset dy="4"/>
<feGaussianBlur stdDeviation="2"/>
<feComposite in2="hardAlpha" operator="out"/>
<feColorMatrix type="matrix" values="0 0 0 0 0 0 0 0 0 0 0 0 0 0 0 0 0 0 0.25 0"/>
<feBlend mode="normal" in2="BackgroundImageFix" result="effect1_dropShadow"/>
<feBlend mode="normal" in="SourceGraphic" in2="effect1_dropShadow" result="shape"/>
</filter>
<clipPath id="clip0">
<rect width="14.7692" height="14.7692" fill="white" transform="translate(5 9.23077)"/>
</clipPath>
</defs>
</svg>
