<svg width="24" height="24" viewBox="0 0 24 24" fill="none" xmlns="http://www.w3.org/2000/svg">
<g clip-path="url(#clip0)">
<path d="M8.44817 14.5707C8.29344 14.2437 7.9641 14.035 7.60231 14.035H0.959048C0.442298 14.035 0.0233765 14.454 0.0233765 14.9707V15.9065C0.0233765 16.4232 0.442298 16.8421 0.959048 16.8421C1.4758 16.8421 1.89472 16.4232 1.89472 15.9065L5.62386 15.9064L0.235861 22.4708C0.00631397 22.7504 -0.0414517 23.1374 0.113236 23.4644C0.267923 23.7915 0.597314 24 0.959048 24H7.46197C7.97872 24 8.39764 23.5811 8.39764 23.0644V22.1287C8.39764 21.612 7.97872 21.193 7.46197 21.193C6.94522 21.193 6.5263 21.612 6.5263 22.1287H2.93755L8.3256 15.5644C8.55514 15.2847 8.60291 14.8977 8.44817 14.5707Z" fill="white"/>
<path d="M18.2221 4.70044C17.7054 4.70044 17.2864 5.11936 17.2864 5.63611L17.2864 23.0162C17.2864 23.533 17.7053 23.9519 18.2221 23.9519C18.7389 23.9519 19.1578 23.533 19.1578 23.0162L19.1578 5.63611C19.1578 5.11936 18.7389 4.70044 18.2221 4.70044Z" fill="white"/>
<path d="M12.691 5.6386C13.0541 6.00628 13.6465 6.00994 14.0142 5.6468L17.5565 2.14815C17.5578 2.14679 17.5592 2.14543 17.5606 2.14407C17.9254 1.77924 18.519 1.77929 18.8835 2.14379L22.379 5.64244C22.7442 6.00806 23.3367 6.00835 23.7022 5.64305C24.0678 5.27785 24.0681 4.68539 23.7028 4.31982L20.2071 0.820833C19.6598 0.273662 18.941 6.16227e-06 18.2222 6.22511e-06C17.5043 6.28787e-06 16.7866 0.272818 16.2397 0.81849L12.6992 4.31536C12.3315 4.67855 12.3279 5.27096 12.691 5.6386Z" fill="white"/>
<path d="M4.2768 0C1.9293 0 0.0194702 1.90978 0.0194702 4.25733V9.02925C0.0194702 9.546 0.438392 9.96492 0.955142 9.96492C1.47189 9.96492 1.89081 9.546 1.89081 9.02925V7.11112H6.66274V9.02925C6.66274 9.546 7.08166 9.96492 7.59841 9.96492C8.11516 9.96492 8.53408 9.546 8.53408 9.02925V4.25733C8.53413 1.90978 6.6243 0 4.2768 0ZM6.66278 5.23978H1.89081V4.25733C1.89081 2.94169 2.96116 1.87134 4.2768 1.87134C5.59239 1.87134 6.66278 2.94164 6.66278 4.25733V5.23978Z" fill="white"/>
</g>
<defs>
<clipPath id="clip0">
<rect width="24" height="24" fill="white"/>
</clipPath>
</defs>
</svg>
